<svg version="1.1" id="Layer_1" xmlns="http://www.w3.org/2000/svg" xmlns:xlink="http://www.w3.org/1999/xlink" x="0px" y="0px"
	 width="100%" viewBox="0 0 1536 1536" enable-background="new 0 0 1536 1536" xml:space="preserve">
<path fill="#FFFFFF" opacity="1.000000" stroke="none" 
	d="
M715.000000,1537.000000 
	C476.666718,1537.000000 238.833420,1537.000000 1.000096,1537.000000 
	C1.000064,1025.000122 1.000064,513.000244 1.000032,1.000302 
	C512.999756,1.000201 1024.999512,1.000201 1536.999512,1.000101 
	C1536.999634,512.999695 1536.999634,1024.999390 1536.999756,1536.999512 
	C1263.166626,1537.000000 989.333313,1537.000000 715.000000,1537.000000 
M816.903687,609.140503 
	C826.603699,599.645813 836.072327,589.896362 846.113403,580.777222 
	C850.347961,576.931458 851.186707,572.686584 851.193298,567.548401 
	C851.235901,534.228149 851.403381,500.908112 851.468506,467.587860 
	C851.485413,458.931396 851.238831,450.274719 851.205383,441.617767 
	C851.192139,438.197815 849.909790,436.443115 846.234131,436.459503 
	C841.914307,436.478729 837.591553,435.928680 833.272278,435.958008 
	C811.840942,436.103668 790.410767,436.463379 768.979370,436.549316 
	C741.854004,436.658112 714.727905,436.575592 686.747070,436.575592 
	C686.747070,487.800598 686.747070,538.844543 686.747070,590.204529 
	C684.476990,590.315979 683.027100,590.447449 681.577087,590.449646 
	C634.258789,590.520508 586.940491,590.610474 539.622253,590.583374 
	C535.551514,590.580994 533.663086,591.438110 533.675232,596.136536 
	C533.808777,647.782654 533.769226,699.429321 533.647766,751.075623 
	C533.635925,756.094849 536.534851,756.213806 540.157410,756.187622 
	C561.137878,756.035889 582.119019,755.814758 603.099243,755.872559 
	C623.227051,755.928040 643.355225,756.470154 663.480164,756.338257 
	C666.563538,756.318054 670.272461,754.505920 672.590271,752.342285 
	C680.987061,744.503540 688.857666,736.104492 697.032166,728.023315 
	C709.283508,715.912048 721.666016,703.933411 733.915588,691.820435 
	C749.326843,676.580994 764.628174,661.230469 780.038025,645.989624 
	C791.104126,635.044800 802.287720,624.218872 813.365784,613.286133 
	C814.509949,612.156982 815.291504,610.660461 816.184143,609.278015 
	C816.184143,609.278015 816.229004,609.311646 816.903687,609.140503 
M799.174866,912.377747 
	C802.504517,912.269348 805.833557,912.100525 809.164001,912.063232 
	C821.320618,911.927246 833.477539,911.792908 845.634644,911.753357 
	C849.096558,911.742065 850.696350,910.614563 850.610107,906.779663 
	C850.413269,898.025757 850.653015,889.262268 850.705383,880.502563 
	C850.932251,842.520935 851.130066,804.539185 851.394348,766.557861 
	C851.484009,753.672485 850.721130,755.696594 862.491150,755.677429 
	C907.283508,755.604431 952.076111,755.733826 996.868652,755.753479 
	C1003.716858,755.756470 1003.765381,755.673584 1003.770996,748.746460 
	C1003.794312,720.253174 1003.739014,691.759705 1003.803406,663.266602 
	C1003.854614,640.626770 1003.905151,617.985107 1004.280151,595.349609 
	C1004.350647,591.096313 1002.562561,590.817566 999.274963,590.803833 
	C957.701660,590.629578 916.128601,590.300049 874.555481,590.288940 
	C871.723145,590.288147 868.413330,591.945129 866.158752,593.828491 
	C861.754028,597.507935 857.967468,601.921936 853.874756,605.981262 
	C826.848511,632.786377 799.830750,659.600281 772.767395,686.368042 
	C746.932251,711.920959 721.142761,737.521667 695.101562,762.863342 
	C689.653687,768.164917 686.740051,773.534851 686.811462,781.492126 
	C687.116394,815.479431 686.763245,849.472595 686.664429,883.463623 
	C686.637451,892.740295 686.660339,902.017090 686.660339,912.388550 
	C724.716125,912.388550 761.475586,912.388550 799.174866,912.377747 
M455.483490,1039.476685 
	C455.483490,1044.549194 455.483490,1049.621582 455.483490,1054.724365 
	C462.722473,1054.724365 468.669434,1054.724365 474.997559,1054.724365 
	C474.997559,1030.281128 474.997559,1006.113464 474.997559,980.513184 
	C480.973145,989.248596 486.060913,996.902710 491.368835,1004.400940 
	C502.690002,1020.393677 514.099548,1036.324097 525.569763,1052.210083 
	C526.361328,1053.306519 527.914429,1054.422485 529.179443,1054.503906 
	C533.468384,1054.780029 538.135742,1055.523804 541.913818,1054.105469 
	C543.322327,1053.576660 542.679688,1047.584473 542.972351,1044.083618 
	C543.000061,1043.752075 543.049683,1043.420776 543.052368,1043.089111 
	C543.305786,1011.775085 543.671753,980.461304 543.735962,949.146912 
	C543.755432,939.629211 541.738098,938.251038 532.043335,939.251648 
	C531.713257,939.285706 531.382812,939.443420 531.061768,939.419434 
	C526.065491,939.047546 524.708130,941.591187 524.697632,946.266602 
	C524.649231,967.921021 524.336121,989.574829 524.098022,1011.228638 
	C524.087280,1012.207825 523.884155,1013.184937 523.739807,1014.428528 
	C507.142120,990.903687 490.877014,967.833252 474.588898,944.779114 
	C471.556885,940.487488 462.373596,937.984863 458.208984,940.379883 
	C457.506500,940.783875 456.963806,941.956726 456.862610,942.833801 
	C456.317749,947.555603 455.578857,952.294434 455.556366,957.030518 
	C455.427338,984.180908 455.481750,1011.332153 455.483490,1039.476685 
M604.108154,1007.492676 
	C604.421265,1009.462585 604.694702,1011.439819 605.053528,1013.401367 
	C610.950684,1045.637085 637.192444,1064.515869 669.521851,1053.737671 
	C677.439514,1051.098022 684.292297,1046.611084 689.150696,1039.292847 
	C684.805969,1034.306885 680.729004,1029.628174 676.770508,1025.085449 
	C673.757690,1027.512573 671.344177,1029.758057 668.644592,1031.579712 
	C656.558655,1039.735352 638.561890,1036.132568 632.257446,1023.569214 
	C624.389648,1007.890686 624.180359,991.185608 630.791992,975.228577 
	C637.560547,958.893005 654.392273,954.033508 668.708374,963.005127 
	C671.736755,964.902954 674.476990,967.260498 677.754028,969.707947 
	C680.746216,965.820435 683.717346,962.116516 686.515137,958.285950 
	C690.055969,953.437927 689.794922,952.551147 684.948120,948.813171 
	C672.721375,939.383667 658.847595,936.653259 643.976074,939.403015 
	C632.149963,941.589661 622.421692,947.431091 615.389282,957.643066 
	C605.127625,972.544312 602.711792,989.098267 604.108154,1007.492676 
M240.112823,998.501343 
	C240.375412,1002.653137 240.305298,1006.857788 240.955414,1010.947998 
	C244.759079,1034.879150 259.226807,1055.537964 286.348175,1056.338257 
	C300.068024,1056.742920 312.356445,1053.329224 322.007507,1042.998047 
	C323.147034,1041.778198 324.705811,1039.293091 324.228485,1038.491699 
	C321.399384,1033.743164 318.026886,1029.318359 314.718781,1024.616455 
	C312.256836,1026.426758 310.503143,1027.655151 308.814606,1028.967529 
	C292.324768,1041.783447 272.853516,1037.169922 265.495056,1017.818298 
	C260.512085,1004.713989 260.575470,990.766968 265.315002,977.472961 
	C269.737854,965.067078 280.342743,957.634521 292.332001,959.101562 
	C298.643188,959.873779 304.675232,963.507141 310.637299,966.271362 
	C313.068298,967.398438 314.392883,968.098572 316.289337,965.388428 
	C319.115601,961.349792 322.559082,957.743042 326.132690,953.484436 
	C323.542084,951.107910 321.289825,948.447266 318.500549,946.595520 
	C310.466003,941.261658 301.587982,938.294678 291.840271,938.210876 
	C277.342072,938.086182 264.766113,942.433044 254.999466,953.652466 
	C244.024734,966.259644 240.460098,981.333740 240.112823,998.501343 
M359.718781,1020.497253 
	C359.717560,998.520874 359.707733,976.544434 359.718109,954.568054 
	C359.724915,940.157532 357.855560,938.451660 343.668365,940.028259 
	C343.172363,940.083435 342.483917,939.963074 342.214569,940.242310 
	C340.739441,941.771667 338.897461,943.198242 338.098511,945.054749 
	C337.371704,946.743469 337.761292,948.936340 337.753448,950.907410 
	C337.627502,982.591248 337.510315,1014.275085 337.418884,1045.958984 
	C337.413605,1047.781982 337.214722,1049.790161 337.892975,1051.375366 
	C338.529724,1052.863525 340.074341,1054.758179 341.458099,1054.978882 
	C345.209534,1055.577759 349.087799,1055.488281 352.915527,1055.484131 
	C366.405762,1055.469360 379.897949,1055.472656 393.383484,1055.189209 
	C395.059387,1055.154053 398.031708,1053.561890 398.131805,1052.480957 
	C398.626404,1047.138672 398.356934,1041.725830 398.356934,1035.405273 
	C385.216766,1035.405273 372.495544,1035.405273 359.714600,1035.405273 
	C359.714600,1030.139893 359.714600,1025.817749 359.718781,1020.497253 
M1023.845581,993.489563 
	C1015.029358,980.851562 1006.094727,968.293518 997.476440,955.521973 
	C995.190979,952.135193 992.290222,952.727356 989.627014,953.561951 
	C988.535400,953.903992 987.618286,956.652161 987.606506,958.312866 
	C987.438721,981.963928 987.437927,1005.616211 987.401794,1029.268188 
	C987.392456,1035.356689 987.400330,1041.445190 987.400330,1047.489990 
	C991.463684,1047.489990 994.382568,1047.489990 997.984924,1047.489990 
	C997.984924,1023.244385 997.984924,999.325439 997.984924,974.424194 
	C1014.343201,998.568604 1030.087769,1021.666016 1045.628418,1044.899780 
	C1047.916260,1048.320190 1051.028442,1048.015137 1053.896362,1047.464722 
	C1054.879639,1047.276123 1055.831665,1043.979248 1055.839600,1042.098267 
	C1055.949219,1016.278503 1055.890869,990.458008 1055.874512,964.637695 
	C1055.872314,961.177368 1055.874146,957.717041 1055.874146,953.739502 
	C1052.416260,953.545349 1049.561523,953.385071 1045.840576,953.176086 
	C1045.840576,977.412354 1045.840576,1000.863647 1045.840576,1024.314941 
	C1045.500488,1024.351807 1045.160522,1024.388550 1044.820435,1024.425293 
	C1037.970703,1014.307800 1031.120972,1004.190308 1023.845581,993.489563 
M817.167542,959.672729 
	C814.957642,961.666443 812.469543,963.428528 810.584778,965.692810 
	C800.932190,977.288940 797.924500,990.805786 798.819336,1005.652283 
	C800.114502,1027.140747 812.911377,1047.222534 837.813171,1048.503052 
	C851.542053,1049.209229 862.776367,1044.239624 870.855042,1032.818237 
	C879.504028,1020.590637 881.147705,1006.779907 879.639465,992.409485 
	C878.372620,980.339722 873.933716,969.435303 864.742615,961.256104 
	C852.573425,950.426575 833.176025,949.848450 817.167542,959.672729 
M944.903931,1010.557434 
	C932.617432,993.033875 920.173462,975.617188 908.156799,957.910583 
	C905.203064,953.558289 902.050476,952.360901 897.170654,953.708740 
	C897.170654,985.063721 897.170654,1016.279907 897.170654,1047.550903 
	C900.742310,1047.222412 903.790222,1046.942261 907.574951,1046.594238 
	C907.574951,1023.691833 907.574951,1001.084961 907.574951,978.478027 
	C908.199341,978.123291 908.823730,977.768555 909.448120,977.413818 
	C909.701782,978.221497 909.775085,979.153931 910.235229,979.818726 
	C924.494446,1000.415955 938.995850,1020.850281 952.927917,1041.665771 
	C956.105347,1046.412964 959.353699,1048.009277 964.422607,1046.803467 
	C964.422607,1016.780090 964.399902,986.815247 964.454773,956.850586 
	C964.460815,953.553772 962.638000,953.031921 959.980957,953.099487 
	C956.952271,953.176514 954.991882,953.858093 955.033142,957.651489 
	C955.196411,972.646423 955.100708,987.644104 955.100952,1002.640808 
	C955.101074,1009.705444 955.100891,1016.770081 955.100891,1023.834656 
	C954.696838,1023.944275 954.292725,1024.053833 953.888672,1024.163452 
	C951.028320,1019.829285 948.168030,1015.495117 944.903931,1010.557434 
M412.620758,953.789490 
	C412.668396,972.755798 412.702026,991.722107 412.768433,1010.688354 
	C412.814941,1023.967407 412.826324,1037.247925 413.088562,1050.523071 
	C413.118011,1052.014038 414.605652,1054.694702 415.543854,1054.752197 
	C421.771637,1055.133301 428.033966,1054.949585 434.790649,1054.949585 
	C434.790649,1051.684814 434.790192,1049.210083 434.790710,1046.735352 
	C434.796173,1020.754944 434.803253,994.774536 434.806183,968.794128 
	C434.806885,962.466736 434.860718,956.138489 434.770905,949.812256 
	C434.655548,941.683289 433.340332,940.260681 425.071167,940.170227 
	C421.179932,940.127625 417.280518,940.829773 413.330780,941.199463 
	C413.082184,945.577209 412.875366,949.218994 412.620758,953.789490 
M587.472290,1047.280029 
	C587.472290,1011.692139 587.472290,976.104187 587.472290,939.271179 
	C582.362488,939.271179 577.561462,939.596497 572.825317,939.181458 
	C567.895020,938.749390 566.626648,940.774963 566.613403,945.368774 
	C566.536987,971.996704 566.236450,998.623962 566.005066,1025.251465 
	C565.934387,1033.388672 565.705750,1041.528687 565.881104,1049.660278 
	C565.914551,1051.208008 567.426331,1053.983887 568.395081,1054.046631 
	C574.603394,1054.448608 580.850525,1054.251953 587.195007,1054.251953 
	C587.302002,1051.845093 587.382812,1050.027588 587.472290,1047.280029 
M1099.709473,953.161316 
	C1092.626343,953.161316 1085.543213,953.161316 1078.635498,953.161316 
	C1078.635498,984.953857 1078.635498,1015.874512 1078.635498,1047.296021 
	C1096.024536,1047.296021 1112.873169,1047.296021 1129.579834,1047.296021 
	C1129.579834,1043.725952 1129.579834,1040.657959 1129.579834,1037.135742 
	C1116.233765,1037.135742 1103.316895,1037.135742 1090.082764,1037.135742 
	C1090.082764,1026.598145 1090.082764,1016.527588 1090.082764,1005.851074 
	C1100.938354,1005.851074 1111.662964,1005.851074 1122.542236,1005.851074 
	C1122.542236,1002.325012 1122.542236,999.403625 1122.542236,996.019653 
	C1111.618530,996.019653 1100.910889,996.019653 1090.014038,996.019653 
	C1090.014038,985.197815 1090.014038,974.614197 1090.014038,963.314819 
	C1103.040771,963.314819 1115.783569,963.314819 1128.752197,963.314819 
	C1128.752197,959.667358 1128.752197,956.736755 1128.752197,953.166931 
	C1119.241455,953.166931 1109.952637,953.166931 1099.709473,953.161316 
M1200.251343,1043.805786 
	C1201.093750,1043.270996 1201.970337,1042.782593 1202.772827,1042.193481 
	C1207.752319,1038.538086 1209.011841,1034.896973 1206.105225,1031.453979 
	C1202.117310,1026.730225 1199.794678,1031.665771 1197.261353,1033.484375 
	C1185.269531,1042.093018 1166.147583,1039.027466 1159.564209,1026.494385 
	C1151.425171,1011.000000 1151.130615,994.545898 1157.780762,978.516235 
	C1161.401978,969.787720 1168.661255,964.380005 1178.647095,963.745178 
	C1187.893433,963.157349 1196.662842,964.105103 1203.123779,972.373474 
	C1204.149536,970.718506 1204.800781,969.779114 1205.340210,968.779480 
	C1208.839844,962.294617 1208.750977,962.410400 1202.708740,958.339111 
	C1195.528564,953.501099 1187.466187,952.731689 1179.254761,953.187012 
	C1163.975098,954.034058 1153.027344,961.228088 1146.582153,975.486023 
	C1141.376831,987.001648 1140.975220,998.883911 1142.469604,1010.995911 
	C1143.765503,1021.499512 1146.973145,1031.504761 1155.118530,1038.752930 
	C1168.547241,1050.702393 1183.662598,1051.265625 1200.251343,1043.805786 
M745.462219,957.973328 
	C741.327698,961.702637 736.511414,964.910950 733.187805,969.259949 
	C723.585571,981.824768 722.895935,996.675476 724.423584,1011.592102 
	C725.380371,1020.935120 728.611145,1029.777588 735.018799,1036.982178 
	C746.449341,1049.834473 766.457581,1052.504272 782.552673,1043.505615 
	C790.884033,1038.847656 791.044800,1038.250732 786.114258,1030.053101 
	C785.969666,1029.812744 785.632996,1029.687988 785.419128,1029.533325 
	C783.217651,1031.050415 781.039368,1032.558716 778.853882,1034.056396 
	C766.398987,1042.592651 745.299561,1038.513550 739.375916,1021.998901 
	C734.460083,1008.293823 734.176208,994.564209 739.281433,980.980530 
	C743.895630,968.703186 755.638733,961.740723 768.285583,964.192688 
	C774.239197,965.347046 779.802063,968.516357 785.857849,970.896790 
	C786.429138,969.943359 787.309204,968.145996 788.488464,966.572876 
	C791.246765,962.893555 789.888550,960.696899 786.207825,958.879700 
	C773.012329,952.364807 759.705933,950.606934 745.462219,957.973328 
M1259.598633,963.783813 
	C1266.870972,963.783813 1274.143311,963.783813 1281.689697,963.783813 
	C1281.689697,960.390625 1281.689697,957.314087 1281.689697,953.791931 
	C1260.503296,953.791931 1239.487793,953.791931 1218.488037,953.791931 
	C1218.488037,957.295959 1218.488037,960.527466 1218.488037,964.040405 
	C1227.174927,964.040405 1235.444214,964.040405 1244.625488,964.040405 
	C1244.625488,991.951172 1244.625488,1019.576538 1244.625488,1047.266724 
	C1248.822754,1047.468018 1252.102783,1047.625366 1256.261597,1047.824829 
	C1256.261597,1042.771240 1256.280762,1038.183105 1256.258301,1033.595215 
	C1256.150024,1011.464783 1255.989624,989.334290 1256.030640,967.204224 
	C1256.032837,966.053284 1257.715942,964.905457 1259.598633,963.783813 
z"/>
<path fill="#16857F" opacity="1.000000" stroke="none" 
	d="
M798.704956,912.383179 
	C761.475586,912.388550 724.716125,912.388550 686.660339,912.388550 
	C686.660339,902.017090 686.637451,892.740295 686.664429,883.463623 
	C686.763245,849.472595 687.116394,815.479431 686.811462,781.492126 
	C686.740051,773.534851 689.653687,768.164917 695.101562,762.863342 
	C721.142761,737.521667 746.932251,711.920959 772.767395,686.368042 
	C799.830750,659.600281 826.848511,632.786377 853.874756,605.981262 
	C857.967468,601.921936 861.754028,597.507935 866.158752,593.828491 
	C868.413330,591.945129 871.723145,590.288147 874.555481,590.288940 
	C916.128601,590.300049 957.701660,590.629578 999.274963,590.803833 
	C1002.562561,590.817566 1004.350647,591.096313 1004.280151,595.349609 
	C1003.905151,617.985107 1003.854614,640.626770 1003.803406,663.266602 
	C1003.739014,691.759705 1003.794312,720.253174 1003.770996,748.746460 
	C1003.765381,755.673584 1003.716858,755.756470 996.868652,755.753479 
	C952.076111,755.733826 907.283508,755.604431 862.491150,755.677429 
	C850.721130,755.696594 851.484009,753.672485 851.394348,766.557861 
	C851.130066,804.539185 850.932251,842.520935 850.705383,880.502563 
	C850.653015,889.262268 850.413269,898.025757 850.610107,906.779663 
	C850.696350,910.614563 849.096558,911.742065 845.634644,911.753357 
	C833.477539,911.792908 821.320618,911.927246 809.164001,912.063232 
	C805.833557,912.100525 802.504517,912.269348 798.704956,912.383179 
z"/>
<path fill="#091918" opacity="1.000000" stroke="none" 
	d="
M455.478699,1038.979980 
	C455.481750,1011.332153 455.427338,984.180908 455.556366,957.030518 
	C455.578857,952.294434 456.317749,947.555603 456.862610,942.833801 
	C456.963806,941.956726 457.506500,940.783875 458.208984,940.379883 
	C462.373596,937.984863 471.556885,940.487488 474.588898,944.779114 
	C490.877014,967.833252 507.142120,990.903687 523.739807,1014.428528 
	C523.884155,1013.184937 524.087280,1012.207825 524.098022,1011.228638 
	C524.336121,989.574829 524.649231,967.921021 524.697632,946.266602 
	C524.708130,941.591187 526.065491,939.047546 531.061768,939.419434 
	C531.382812,939.443420 531.713257,939.285706 532.043335,939.251648 
	C541.738098,938.251038 543.755432,939.629211 543.735962,949.146912 
	C543.671753,980.461304 543.305786,1011.775085 543.052368,1043.089111 
	C543.049683,1043.420776 543.000061,1043.752075 542.972351,1044.083618 
	C542.679688,1047.584473 543.322327,1053.576660 541.913818,1054.105469 
	C538.135742,1055.523804 533.468384,1054.780029 529.179443,1054.503906 
	C527.914429,1054.422485 526.361328,1053.306519 525.569763,1052.210083 
	C514.099548,1036.324097 502.690002,1020.393677 491.368835,1004.400940 
	C486.060913,996.902710 480.973145,989.248596 474.997559,980.513184 
	C474.997559,1006.113464 474.997559,1030.281128 474.997559,1054.724365 
	C468.669434,1054.724365 462.722473,1054.724365 455.483490,1054.724365 
	C455.483490,1049.621582 455.483490,1044.549194 455.478699,1038.979980 
z"/>
<path fill="#0A1A19" opacity="1.000000" stroke="none" 
	d="
M604.086548,1007.047607 
	C602.711792,989.098267 605.127625,972.544312 615.389282,957.643066 
	C622.421692,947.431091 632.149963,941.589661 643.976074,939.403015 
	C658.847595,936.653259 672.721375,939.383667 684.948120,948.813171 
	C689.794922,952.551147 690.055969,953.437927 686.515137,958.285950 
	C683.717346,962.116516 680.746216,965.820435 677.754028,969.707947 
	C674.476990,967.260498 671.736755,964.902954 668.708374,963.005127 
	C654.392273,954.033508 637.560547,958.893005 630.791992,975.228577 
	C624.180359,991.185608 624.389648,1007.890686 632.257446,1023.569214 
	C638.561890,1036.132568 656.558655,1039.735352 668.644592,1031.579712 
	C671.344177,1029.758057 673.757690,1027.512573 676.770508,1025.085449 
	C680.729004,1029.628174 684.805969,1034.306885 689.150696,1039.292847 
	C684.292297,1046.611084 677.439514,1051.098022 669.521851,1053.737671 
	C637.192444,1064.515869 610.950684,1045.637085 605.053528,1013.401367 
	C604.694702,1011.439819 604.421265,1009.462585 604.086548,1007.047607 
z"/>
<path fill="#091918" opacity="1.000000" stroke="none" 
	d="
M240.115112,998.012390 
	C240.460098,981.333740 244.024734,966.259644 254.999466,953.652466 
	C264.766113,942.433044 277.342072,938.086182 291.840271,938.210876 
	C301.587982,938.294678 310.466003,941.261658 318.500549,946.595520 
	C321.289825,948.447266 323.542084,951.107910 326.132690,953.484436 
	C322.559082,957.743042 319.115601,961.349792 316.289337,965.388428 
	C314.392883,968.098572 313.068298,967.398438 310.637299,966.271362 
	C304.675232,963.507141 298.643188,959.873779 292.332001,959.101562 
	C280.342743,957.634521 269.737854,965.067078 265.315002,977.472961 
	C260.575470,990.766968 260.512085,1004.713989 265.495056,1017.818298 
	C272.853516,1037.169922 292.324768,1041.783447 308.814606,1028.967529 
	C310.503143,1027.655151 312.256836,1026.426758 314.718781,1024.616455 
	C318.026886,1029.318359 321.399384,1033.743164 324.228485,1038.491699 
	C324.705811,1039.293091 323.147034,1041.778198 322.007507,1042.998047 
	C312.356445,1053.329224 300.068024,1056.742920 286.348175,1056.338257 
	C259.226807,1055.537964 244.759079,1034.879150 240.955414,1010.947998 
	C240.305298,1006.857788 240.375412,1002.653137 240.115112,998.012390 
z"/>
<path fill="#3C857F" opacity="1.000000" stroke="none" 
	d="
M816.241333,609.334473 
	C815.291504,610.660461 814.509949,612.156982 813.365784,613.286133 
	C802.287720,624.218872 791.104126,635.044800 780.038025,645.989624 
	C764.628174,661.230469 749.326843,676.580994 733.915588,691.820435 
	C721.666016,703.933411 709.283508,715.912048 697.032166,728.023315 
	C688.857666,736.104492 680.987061,744.503540 672.590271,752.342285 
	C670.272461,754.505920 666.563538,756.318054 663.480164,756.338257 
	C643.355225,756.470154 623.227051,755.928040 603.099243,755.872559 
	C582.119019,755.814758 561.137878,756.035889 540.157410,756.187622 
	C536.534851,756.213806 533.635925,756.094849 533.647766,751.075623 
	C533.769226,699.429321 533.808777,647.782654 533.675232,596.136536 
	C533.663086,591.438110 535.551514,590.580994 539.622253,590.583374 
	C586.940491,590.610474 634.258789,590.520508 681.577087,590.449646 
	C683.027100,590.447449 684.476990,590.315979 686.747070,590.204529 
	C686.747070,538.844543 686.747070,487.800598 686.747070,436.575592 
	C714.727905,436.575592 741.854004,436.658112 768.979370,436.549316 
	C790.410767,436.463379 811.840942,436.103668 833.272278,435.958008 
	C837.591553,435.928680 841.914307,436.478729 846.234131,436.459503 
	C849.909790,436.443115 851.192139,438.197815 851.205383,441.617767 
	C851.238831,450.274719 851.485413,458.931396 851.468506,467.587860 
	C851.403381,500.908112 851.235901,534.228149 851.193298,567.548401 
	C851.186707,572.686584 850.347961,576.931458 846.113403,580.777222 
	C836.072327,589.896362 826.603699,599.645813 816.602783,608.853638 
	C817.023132,607.309570 817.571289,605.905151 818.494080,604.819153 
	C824.108643,598.212097 831.794189,593.597046 836.122375,585.656677 
	C838.112488,582.005737 841.099182,578.589355 844.388489,576.040161 
	C847.836365,573.368103 849.065308,570.428528 849.058899,566.316162 
	C848.997681,527.322327 849.048035,488.328278 848.966492,449.334503 
	C848.960083,446.289795 848.200500,443.246674 847.849915,440.640900 
	C837.789001,440.050537 828.511108,439.079132 819.229004,439.036377 
	C781.569092,438.862732 743.907898,438.972870 706.247131,438.983398 
	C702.990662,438.984314 699.703247,439.317688 696.484253,438.980591 
	C690.013367,438.302856 688.972778,439.103699 688.973511,445.803772 
	C688.978760,492.129974 688.984863,538.456177 688.992859,584.782349 
	C688.994080,592.036377 688.016724,592.993408 680.520203,592.992065 
	C634.891541,592.983765 589.262817,592.971375 543.634155,592.964661 
	C536.463867,592.963623 536.028442,593.195557 536.018494,600.614563 
	C535.952454,649.773499 536.010681,698.932739 535.934387,748.091675 
	C535.928711,751.755798 537.203186,753.182800 540.889709,753.082581 
	C547.470703,752.903503 554.061646,752.947266 560.645935,753.052856 
	C577.935364,753.330078 595.222168,753.813171 612.512390,753.982849 
	C628.841492,754.143127 645.173950,754.063538 661.503662,753.929626 
	C663.375671,753.914307 665.635620,753.360596 667.039551,752.222473 
	C673.937622,746.630310 681.311768,741.380005 687.143372,734.792297 
	C692.155029,729.130859 697.090698,723.623047 702.681824,718.441895 
	C715.144104,706.893494 726.717590,694.382202 738.563293,682.176025 
	C740.313171,680.372925 741.239624,677.696106 743.126892,676.115967 
	C747.418335,672.522583 752.196350,669.515381 756.550476,665.990601 
	C766.610474,657.846985 773.288574,646.469360 783.848938,638.537109 
	C792.681396,631.902771 799.631897,622.796997 807.665161,615.044067 
	C810.096313,612.697754 813.359375,611.213562 816.241333,609.334473 
z"/>
<path fill="#0A1A19" opacity="1.000000" stroke="none" 
	d="
M359.716675,1020.996460 
	C359.714600,1025.817749 359.714600,1030.139893 359.714600,1035.405273 
	C372.495544,1035.405273 385.216766,1035.405273 398.356934,1035.405273 
	C398.356934,1041.725830 398.626404,1047.138672 398.131805,1052.480957 
	C398.031708,1053.561890 395.059387,1055.154053 393.383484,1055.189209 
	C379.897949,1055.472656 366.405762,1055.469360 352.915527,1055.484131 
	C349.087799,1055.488281 345.209534,1055.577759 341.458099,1054.978882 
	C340.074341,1054.758179 338.529724,1052.863525 337.892975,1051.375366 
	C337.214722,1049.790161 337.413605,1047.781982 337.418884,1045.958984 
	C337.510315,1014.275085 337.627502,982.591248 337.753448,950.907410 
	C337.761292,948.936340 337.371704,946.743469 338.098511,945.054749 
	C338.897461,943.198242 340.739441,941.771667 342.214569,940.242310 
	C342.483917,939.963074 343.172363,940.083435 343.668365,940.028259 
	C357.855560,938.451660 359.724915,940.157532 359.718109,954.568054 
	C359.707733,976.544434 359.717560,998.520874 359.716675,1020.996460 
z"/>
<path fill="#132121" opacity="1.000000" stroke="none" 
	d="
M1024.058350,993.781189 
	C1031.120972,1004.190308 1037.970703,1014.307800 1044.820435,1024.425293 
	C1045.160522,1024.388550 1045.500488,1024.351807 1045.840576,1024.314941 
	C1045.840576,1000.863647 1045.840576,977.412354 1045.840576,953.176086 
	C1049.561523,953.385071 1052.416260,953.545349 1055.874146,953.739502 
	C1055.874146,957.717041 1055.872314,961.177368 1055.874512,964.637695 
	C1055.890869,990.458008 1055.949219,1016.278503 1055.839600,1042.098267 
	C1055.831665,1043.979248 1054.879639,1047.276123 1053.896362,1047.464722 
	C1051.028442,1048.015137 1047.916260,1048.320190 1045.628418,1044.899780 
	C1030.087769,1021.666016 1014.343201,998.568604 997.984924,974.424194 
	C997.984924,999.325439 997.984924,1023.244385 997.984924,1047.489990 
	C994.382568,1047.489990 991.463684,1047.489990 987.400330,1047.489990 
	C987.400330,1041.445190 987.392456,1035.356689 987.401794,1029.268188 
	C987.437927,1005.616211 987.438721,981.963928 987.606506,958.312866 
	C987.618286,956.652161 988.535400,953.903992 989.627014,953.561951 
	C992.290222,952.727356 995.190979,952.135193 997.476440,955.521973 
	C1006.094727,968.293518 1015.029358,980.851562 1024.058350,993.781189 
z"/>
<path fill="#111F1E" opacity="1.000000" stroke="none" 
	d="
M817.450195,959.447083 
	C833.176025,949.848450 852.573425,950.426575 864.742615,961.256104 
	C873.933716,969.435303 878.372620,980.339722 879.639465,992.409485 
	C881.147705,1006.779907 879.504028,1020.590637 870.855042,1032.818237 
	C862.776367,1044.239624 851.542053,1049.209229 837.813171,1048.503052 
	C812.911377,1047.222534 800.114502,1027.140747 798.819336,1005.652283 
	C797.924500,990.805786 800.932190,977.288940 810.584778,965.692810 
	C812.469543,963.428528 814.957642,961.666443 817.450195,959.447083 
M846.822937,964.071960 
	C845.001770,963.904419 843.183960,963.660278 841.358948,963.582092 
	C830.972778,963.136963 822.383179,966.442322 816.937012,975.783752 
	C808.044189,991.036926 808.584839,1006.882690 815.141235,1022.592163 
	C819.315186,1032.593140 830.819458,1038.790283 841.418579,1038.041748 
	C852.423645,1037.264526 861.950378,1029.863525 865.636047,1019.492615 
	C869.234558,1009.366638 869.886475,999.028503 867.728455,988.604736 
	C865.341980,977.077087 859.721191,967.945190 846.822937,964.071960 
z"/>
<path fill="#111F1E" opacity="1.000000" stroke="none" 
	d="
M945.105835,1010.859253 
	C948.168030,1015.495117 951.028320,1019.829285 953.888672,1024.163452 
	C954.292725,1024.053833 954.696838,1023.944275 955.100891,1023.834656 
	C955.100891,1016.770081 955.101074,1009.705444 955.100952,1002.640808 
	C955.100708,987.644104 955.196411,972.646423 955.033142,957.651489 
	C954.991882,953.858093 956.952271,953.176514 959.980957,953.099487 
	C962.638000,953.031921 964.460815,953.553772 964.454773,956.850586 
	C964.399902,986.815247 964.422607,1016.780090 964.422607,1046.803467 
	C959.353699,1048.009277 956.105347,1046.412964 952.927917,1041.665771 
	C938.995850,1020.850281 924.494446,1000.415955 910.235229,979.818726 
	C909.775085,979.153931 909.701782,978.221497 909.448120,977.413818 
	C908.823730,977.768555 908.199341,978.123291 907.574951,978.478027 
	C907.574951,1001.084961 907.574951,1023.691833 907.574951,1046.594238 
	C903.790222,1046.942261 900.742310,1047.222412 897.170654,1047.550903 
	C897.170654,1016.279907 897.170654,985.063721 897.170654,953.708740 
	C902.050476,952.360901 905.203064,953.558289 908.156799,957.910583 
	C920.173462,975.617188 932.617432,993.033875 945.105835,1010.859253 
z"/>
<path fill="#091918" opacity="1.000000" stroke="none" 
	d="
M412.644653,953.325073 
	C412.875366,949.218994 413.082184,945.577209 413.330780,941.199463 
	C417.280518,940.829773 421.179932,940.127625 425.071167,940.170227 
	C433.340332,940.260681 434.655548,941.683289 434.770905,949.812256 
	C434.860718,956.138489 434.806885,962.466736 434.806183,968.794128 
	C434.803253,994.774536 434.796173,1020.754944 434.790710,1046.735352 
	C434.790192,1049.210083 434.790649,1051.684814 434.790649,1054.949585 
	C428.033966,1054.949585 421.771637,1055.133301 415.543854,1054.752197 
	C414.605652,1054.694702 413.118011,1052.014038 413.088562,1050.523071 
	C412.826324,1037.247925 412.814941,1023.967407 412.768433,1010.688354 
	C412.702026,991.722107 412.668396,972.755798 412.644653,953.325073 
z"/>
<path fill="#0A1A19" opacity="1.000000" stroke="none" 
	d="
M587.467896,1047.745117 
	C587.382812,1050.027588 587.302002,1051.845093 587.195007,1054.251953 
	C580.850525,1054.251953 574.603394,1054.448608 568.395081,1054.046631 
	C567.426331,1053.983887 565.914551,1051.208008 565.881104,1049.660278 
	C565.705750,1041.528687 565.934387,1033.388672 566.005066,1025.251465 
	C566.236450,998.623962 566.536987,971.996704 566.613403,945.368774 
	C566.626648,940.774963 567.895020,938.749390 572.825317,939.181458 
	C577.561462,939.596497 582.362488,939.271179 587.472290,939.271179 
	C587.472290,976.104187 587.472290,1011.692139 587.467896,1047.745117 
z"/>
<path fill="#132121" opacity="1.000000" stroke="none" 
	d="
M1100.186768,953.164124 
	C1109.952637,953.166931 1119.241455,953.166931 1128.752197,953.166931 
	C1128.752197,956.736755 1128.752197,959.667358 1128.752197,963.314819 
	C1115.783569,963.314819 1103.040771,963.314819 1090.014038,963.314819 
	C1090.014038,974.614197 1090.014038,985.197815 1090.014038,996.019653 
	C1100.910889,996.019653 1111.618530,996.019653 1122.542236,996.019653 
	C1122.542236,999.403625 1122.542236,1002.325012 1122.542236,1005.851074 
	C1111.662964,1005.851074 1100.938354,1005.851074 1090.082764,1005.851074 
	C1090.082764,1016.527588 1090.082764,1026.598145 1090.082764,1037.135742 
	C1103.316895,1037.135742 1116.233765,1037.135742 1129.579834,1037.135742 
	C1129.579834,1040.657959 1129.579834,1043.725952 1129.579834,1047.296021 
	C1112.873169,1047.296021 1096.024536,1047.296021 1078.635498,1047.296021 
	C1078.635498,1015.874512 1078.635498,984.953857 1078.635498,953.161316 
	C1085.543213,953.161316 1092.626343,953.161316 1100.186768,953.164124 
z"/>
<path fill="#111F1E" opacity="1.000000" stroke="none" 
	d="
M1199.892334,1043.895996 
	C1183.662598,1051.265625 1168.547241,1050.702393 1155.118530,1038.752930 
	C1146.973145,1031.504761 1143.765503,1021.499512 1142.469604,1010.995911 
	C1140.975220,998.883911 1141.376831,987.001648 1146.582153,975.486023 
	C1153.027344,961.228088 1163.975098,954.034058 1179.254761,953.187012 
	C1187.466187,952.731689 1195.528564,953.501099 1202.708740,958.339111 
	C1208.750977,962.410400 1208.839844,962.294617 1205.340210,968.779480 
	C1204.800781,969.779114 1204.149536,970.718506 1203.123779,972.373474 
	C1196.662842,964.105103 1187.893433,963.157349 1178.647095,963.745178 
	C1168.661255,964.380005 1161.401978,969.787720 1157.780762,978.516235 
	C1151.130615,994.545898 1151.425171,1011.000000 1159.564209,1026.494385 
	C1166.147583,1039.027466 1185.269531,1042.093018 1197.261353,1033.484375 
	C1199.794678,1031.665771 1202.117310,1026.730225 1206.105225,1031.453979 
	C1209.011841,1034.896973 1207.752319,1038.538086 1202.772827,1042.193481 
	C1201.970337,1042.782593 1201.093750,1043.270996 1199.892334,1043.895996 
z"/>
<path fill="#132121" opacity="1.000000" stroke="none" 
	d="
M745.778870,957.780151 
	C759.705933,950.606934 773.012329,952.364807 786.207825,958.879700 
	C789.888550,960.696899 791.246765,962.893555 788.488464,966.572876 
	C787.309204,968.145996 786.429138,969.943359 785.857849,970.896790 
	C779.802063,968.516357 774.239197,965.347046 768.285583,964.192688 
	C755.638733,961.740723 743.895630,968.703186 739.281433,980.980530 
	C734.176208,994.564209 734.460083,1008.293823 739.375916,1021.998901 
	C745.299561,1038.513550 766.398987,1042.592651 778.853882,1034.056396 
	C781.039368,1032.558716 783.217651,1031.050415 785.419128,1029.533325 
	C785.632996,1029.687988 785.969666,1029.812744 786.114258,1030.053101 
	C791.044800,1038.250732 790.884033,1038.847656 782.552673,1043.505615 
	C766.457581,1052.504272 746.449341,1049.834473 735.018799,1036.982178 
	C728.611145,1029.777588 725.380371,1020.935120 724.423584,1011.592102 
	C722.895935,996.675476 723.585571,981.824768 733.187805,969.259949 
	C736.511414,964.910950 741.327698,961.702637 745.778870,957.780151 
z"/>
<path fill="#132121" opacity="1.000000" stroke="none" 
	d="
M1259.107544,963.770020 
	C1257.715942,964.905457 1256.032837,966.053284 1256.030640,967.204224 
	C1255.989624,989.334290 1256.150024,1011.464783 1256.258301,1033.595215 
	C1256.280762,1038.183105 1256.261597,1042.771240 1256.261597,1047.824829 
	C1252.102783,1047.625366 1248.822754,1047.468018 1244.625488,1047.266724 
	C1244.625488,1019.576538 1244.625488,991.951172 1244.625488,964.040405 
	C1235.444214,964.040405 1227.174927,964.040405 1218.488037,964.040405 
	C1218.488037,960.527466 1218.488037,957.295959 1218.488037,953.791931 
	C1239.487793,953.791931 1260.503296,953.791931 1281.689697,953.791931 
	C1281.689697,957.314087 1281.689697,960.390625 1281.689697,963.783813 
	C1274.143311,963.783813 1266.870972,963.783813 1259.107544,963.770020 
z"/>
<path fill="#15857F" opacity="1.000000" stroke="none" 
	d="
M816.212769,609.306274 
	C813.359375,611.213562 810.096313,612.697754 807.665161,615.044067 
	C799.631897,622.796997 792.681396,631.902771 783.848938,638.537109 
	C773.288574,646.469360 766.610474,657.846985 756.550476,665.990601 
	C752.196350,669.515381 747.418335,672.522583 743.126892,676.115967 
	C741.239624,677.696106 740.313171,680.372925 738.563293,682.176025 
	C726.717590,694.382202 715.144104,706.893494 702.681824,718.441895 
	C697.090698,723.623047 692.155029,729.130859 687.143372,734.792297 
	C681.311768,741.380005 673.937622,746.630310 667.039551,752.222473 
	C665.635620,753.360596 663.375671,753.914307 661.503662,753.929626 
	C645.173950,754.063538 628.841492,754.143127 612.512390,753.982849 
	C595.222168,753.813171 577.935364,753.330078 560.645935,753.052856 
	C554.061646,752.947266 547.470703,752.903503 540.889709,753.082581 
	C537.203186,753.182800 535.928711,751.755798 535.934387,748.091675 
	C536.010681,698.932739 535.952454,649.773499 536.018494,600.614563 
	C536.028442,593.195557 536.463867,592.963623 543.634155,592.964661 
	C589.262817,592.971375 634.891541,592.983765 680.520203,592.992065 
	C688.016724,592.993408 688.994080,592.036377 688.992859,584.782349 
	C688.984863,538.456177 688.978760,492.129974 688.973511,445.803772 
	C688.972778,439.103699 690.013367,438.302856 696.484253,438.980591 
	C699.703247,439.317688 702.990662,438.984314 706.247131,438.983398 
	C743.907898,438.972870 781.569092,438.862732 819.229004,439.036377 
	C828.511108,439.079132 837.789001,440.050537 847.849915,440.640900 
	C848.200500,443.246674 848.960083,446.289795 848.966492,449.334503 
	C849.048035,488.328278 848.997681,527.322327 849.058899,566.316162 
	C849.065308,570.428528 847.836365,573.368103 844.388489,576.040161 
	C841.099182,578.589355 838.112488,582.005737 836.122375,585.656677 
	C831.794189,593.597046 824.108643,598.212097 818.494080,604.819153 
	C817.571289,605.905151 817.023132,607.309570 816.265381,608.939209 
	C816.229004,609.311646 816.184143,609.278015 816.212769,609.306274 
z"/>
<path fill="#FCFCFC" opacity="1.000000" stroke="none" 
	d="
M847.242188,964.166260 
	C859.721191,967.945190 865.341980,977.077087 867.728455,988.604736 
	C869.886475,999.028503 869.234558,1009.366638 865.636047,1019.492615 
	C861.950378,1029.863525 852.423645,1037.264526 841.418579,1038.041748 
	C830.819458,1038.790283 819.315186,1032.593140 815.141235,1022.592163 
	C808.584839,1006.882690 808.044189,991.036926 816.937012,975.783752 
	C822.383179,966.442322 830.972778,963.136963 841.358948,963.582092 
	C843.183960,963.660278 845.001770,963.904419 847.242188,964.166260 
z"/>
</svg>